<svg xmlns="http://www.w3.org/2000/svg" version="1.1" xmlns:xlink="http://www.w3.org/1999/xlink" xmlns:svgjs="http://svgjs.dev/svgjs" width="1500" height="1500" viewBox="0 0 1500 1500"><rect width="1500" height="1500" fill="#0a1627"></rect><g transform="matrix(0.6666666666666666,0,0,0.6666666666666666,249.39890710382502,75.87962213225381)"><svg viewBox="0 0 183 247" data-background-color="#0a1627" preserveAspectRatio="xMidYMid meet" height="2024" width="1500" xmlns="http://www.w3.org/2000/svg" xmlns:xlink="http://www.w3.org/1999/xlink"><g id="tight-bounds" transform="matrix(1,0,0,1,0.11000000000001364,-0.09999999999999432)"><svg viewBox="0 0 182.7796296587358 247.2" height="247.2" width="182.7796296587358"><g><svg></svg></g><g><svg viewBox="0 0 182.7796296587358 247.2" height="247.2" width="182.7796296587358"><g transform="matrix(1,0,0,1,0,47.215199999999996)"><svg viewBox="0 0 182.7796296587358 152.7696" height="152.7696" width="182.7796296587358"><g><svg viewBox="0 0 244.43135999999998 204.29892086101665" height="152.7696" width="182.7796296587358"><g transform="matrix(1,0,0,1,0,122.27493212154042)"><svg viewBox="0 0 244.43135999999998 82.02398873947624" height="82.02398873947624" width="244.43135999999998"><g id="textblocktransform"><svg viewBox="0 0 244.43135999999998 82.02398873947624" height="82.02398873947624" width="244.43135999999998" id="textblock"><g><svg viewBox="0 0 244.43135999999998 82.02398873947624" height="82.02398873947624" width="244.43135999999998"><g transform="matrix(1,0,0,1,0,0)"><svg width="244.43135999999998" viewBox="117.27 -35.01 226.54000000000002 73.02000000000001" height="82.02398873947624" data-palette-color="#fe0039"><svg></svg><svg></svg><g class="wordmark-text-0" data-fill-palette-color="primary" id="text-0"><path transform="translate(149.52,0)" d="M34.5-30v25c0 0.68-0.13 1.327-0.39 1.94-0.26 0.607-0.62 1.14-1.08 1.6-0.453 0.453-0.987 0.81-1.6 1.07-0.607 0.26-1.253 0.39-1.94 0.39v0h-19.99c-0.687 0-1.333-0.13-1.94-0.39-0.613-0.26-1.147-0.617-1.6-1.07-0.46-0.46-0.82-0.993-1.08-1.6-0.26-0.613-0.39-1.26-0.39-1.94v0-25c0-0.687 0.13-1.337 0.39-1.95 0.26-0.607 0.62-1.133 1.08-1.58 0.453-0.447 0.987-0.807 1.6-1.08 0.607-0.267 1.253-0.4 1.94-0.4v0h19.99c0.687 0 1.333 0.133 1.94 0.4 0.613 0.273 1.147 0.633 1.6 1.08 0.46 0.447 0.82 0.973 1.08 1.58 0.26 0.613 0.39 1.263 0.39 1.95zM29.49-30h-19.99v25h19.99zM65.48-14.99h-16.99c-0.687 0-1.333-0.133-1.94-0.4-0.613-0.273-1.147-0.633-1.6-1.08-0.46-0.447-0.82-0.973-1.08-1.58-0.26-0.613-0.39-1.263-0.39-1.95v0-10c0-0.687 0.13-1.337 0.39-1.95 0.26-0.607 0.62-1.133 1.08-1.58 0.453-0.447 0.987-0.807 1.6-1.08 0.607-0.267 1.253-0.4 1.94-0.4v0h16.99c0.68 0 1.327 0.133 1.94 0.4 0.607 0.273 1.14 0.633 1.6 1.08 0.453 0.447 0.81 0.973 1.07 1.58 0.26 0.613 0.39 1.263 0.39 1.95v0 4.51h-5v-4.51h-16.99v10h16.99c0.68 0 1.327 0.133 1.94 0.4 0.607 0.26 1.14 0.617 1.6 1.07 0.453 0.453 0.81 0.987 1.07 1.6 0.26 0.607 0.39 1.253 0.39 1.94v0 9.99c0 0.68-0.13 1.327-0.39 1.94-0.26 0.607-0.617 1.14-1.07 1.6-0.46 0.453-0.993 0.81-1.6 1.07-0.613 0.26-1.26 0.39-1.94 0.39v0h-17.48c-0.687 0-1.333-0.13-1.94-0.39-0.613-0.26-1.147-0.617-1.6-1.07-0.46-0.46-0.82-0.993-1.08-1.6-0.26-0.613-0.39-1.26-0.39-1.94v0-4.5h5.01v4.5h17.48zM79.49-35.01h5.01v35.01h-5.01zM98.49-27.15v27.15h-5.01v-35.01h5.01l21.04 27.15v-27.15h5.01v35.01h-5.01zM130.52-30v-5.01h28v5.01h-11.5v30h-5v-30z" fill="#fe0039" fill-rule="nonzero" stroke="none" stroke-width="1" stroke-linecap="butt" stroke-linejoin="miter" stroke-miterlimit="10" stroke-dasharray="" stroke-dashoffset="0" font-family="none" font-weight="none" font-size="none" text-anchor="none" style="mix-blend-mode: normal" data-fill-palette-color="primary" opacity="1"></path><path transform="translate(113.27,38.01)" d="M26.49-14.99h-16.99c-0.687 0-1.333-0.133-1.94-0.4-0.613-0.273-1.147-0.633-1.6-1.08-0.46-0.447-0.82-0.973-1.08-1.58-0.26-0.613-0.39-1.263-0.39-1.95v0-10c0-0.687 0.13-1.337 0.39-1.95 0.26-0.607 0.62-1.133 1.08-1.58 0.453-0.447 0.987-0.807 1.6-1.08 0.607-0.267 1.253-0.4 1.94-0.4v0h16.99c0.68 0 1.327 0.133 1.94 0.4 0.613 0.273 1.147 0.633 1.6 1.08 0.453 0.447 0.81 0.973 1.07 1.58 0.26 0.613 0.39 1.263 0.39 1.95v0 4.51h-5v-4.51h-16.99v10h16.99c0.68 0 1.327 0.133 1.94 0.4 0.613 0.26 1.147 0.617 1.6 1.07 0.453 0.453 0.81 0.987 1.07 1.6 0.26 0.607 0.39 1.253 0.39 1.94v0 9.99c0 0.68-0.13 1.327-0.39 1.94-0.26 0.607-0.617 1.14-1.07 1.6-0.453 0.453-0.987 0.81-1.6 1.07-0.613 0.26-1.26 0.39-1.94 0.39v0h-17.48c-0.687 0-1.333-0.13-1.94-0.39-0.613-0.26-1.147-0.617-1.6-1.07-0.453-0.46-0.813-0.993-1.08-1.6-0.26-0.613-0.39-1.26-0.39-1.94v0-4.5h5.01v4.5h17.48zM37.5-30v-5.01h28v5.01h-11.5v30h-5v-30zM78-35.01h5.01l13.5 35.01h-5.01l-3.1-8.06h-15.79l-3.1 8.06h-5.01zM80.52-28.49l-6.01 15.43h11.96zM130.18-26.49v3.98c0 4.88-2.083 7.663-6.25 8.35v0l6.59 14.16h-5.54l-6.5-13.99h-10.96v13.99h-5.01v-35.01h19.17c5.667 0 8.5 2.84 8.5 8.52zM107.52-30v11.01h13.89c1.333 0 2.293-0.293 2.88-0.88 0.587-0.587 0.88-1.547 0.88-2.88v0-3.5c0-1.333-0.293-2.293-0.88-2.88-0.587-0.58-1.547-0.87-2.88-0.87v0zM135.52-30v-5.01h28.01v5.01h-11.5v30h-5.01v-30zM169.53 0v-35.01h25.51v5.01h-20.5v10h17.5v5.01h-17.5v9.99h20.5v5zM230.2-26.49v3.98c0 4.88-2.083 7.663-6.25 8.35v0l6.59 14.16h-5.54l-6.49-13.99h-10.97v13.99h-5v-35.01h19.16c5.667 0 8.5 2.84 8.5 8.52zM207.54-30v11.01h13.9c1.333 0 2.293-0.293 2.88-0.88 0.587-0.587 0.88-1.547 0.88-2.88v0-3.5c0-1.333-0.293-2.293-0.88-2.88-0.587-0.58-1.547-0.87-2.88-0.87v0z" fill="#fe0039" fill-rule="nonzero" stroke="none" stroke-width="1" stroke-linecap="butt" stroke-linejoin="miter" stroke-miterlimit="10" stroke-dasharray="" stroke-dashoffset="0" font-family="none" font-weight="none" font-size="none" text-anchor="none" style="mix-blend-mode: normal" data-fill-palette-color="primary" opacity="1"></path></g></svg></g></svg></g></svg></g></svg></g><g transform="matrix(1,0,0,1,54.661018009877864,0)"><svg viewBox="0 0 135.10932398024426 113.35715243795617" height="113.35715243795617" width="135.10932398024426"><g><svg xmlns="http://www.w3.org/2000/svg" xmlns:xlink="http://www.w3.org/1999/xlink" version="1.1" x="0" y="0" viewBox="2.687 11.988875432932257 94.34782426855851 79.15812456706774" enable-background="new 0 0 100 100" xml:space="preserve" height="113.35715243795617" width="135.10932398024426" class="icon-icon-0" data-fill-palette-color="accent" id="icon-0"><path d="M74.867 46.28A51 51 0 0 0 68.297 45.64V56.568A22.4 22.4 0 0 1 65.256 58.797V45.641C62.08 45.76 58.938 46.13 55.83 46.822 55.138 46.993 54.445 47.161 53.769 47.379A40 40 0 0 0 53.228 49.443 49 49 0 0 0 52.045 58.866H65.171A22 22 0 0 1 56.318 61.872H52.045C48.633 61.688 45.322 60.639 42.399 58.866H49.849C49.932 55.389 50.406 51.939 51.2 48.56 51.234 48.461 51.268 48.325 51.285 48.224 50.018 48.696 48.785 49.305 47.568 49.932A19.6 19.6 0 0 0 41.335 55.284 9 9 0 0 0 40.187 57.312 22 22 0 0 1 37.113 54.391C37.18 54.052 37.264 53.698 37.35 53.36 41.218 37.092 57.536 27.06 73.786 30.945 74.327 32.091 74.732 33.294 75.054 34.507A8 8 0 0 1 74.479 34.322C74.716 34.556 74.952 34.779 75.172 34.998 75.476 36.267 75.661 37.548 75.73 38.864A19.4 19.4 0 0 0 71.862 34.946 8.2 8.2 0 0 0 68.298 33.357V43.443C70.663 43.51 73.027 43.746 75.375 44.135A22 22 0 0 1 74.867 46.28M52.046 45.656C52.755 43.562 53.686 41.534 54.783 39.574A21.8 21.8 0 0 1 59.055 34.337 27.24 27.24 0 0 0 40.711 52.736 22.3 22.3 0 0 1 46.048 48.357 35.5 35.5 0 0 1 52.046 45.656M65.256 43.443V33.357A8.36 8.36 0 0 0 61.675 34.946 19.3 19.3 0 0 0 56.336 41.163 30.5 30.5 0 0 0 54.614 44.913C54.749 44.862 54.884 44.844 55.018 44.795A52.3 52.3 0 0 1 65.256 43.443" fill="#c1c1c1" data-fill-palette-color="accent"></path><path d="M52.976 70.116C53.061 70.52 53.144 70.927 53.229 71.316 53.398 71.993 53.567 72.684 53.77 73.359 54.446 73.579 55.138 73.749 55.831 73.918A49 49 0 0 0 65.257 75.1V67.836A31 31 0 0 0 68.298 66.381V75.1A49 49 0 0 0 77.706 73.918 31 31 0 0 0 79.784 73.359C79.97 72.684 80.155 71.993 80.307 71.316A49 49 0 0 0 81.506 61.871H74.463A27.5 27.5 0 0 0 77.249 58.865H81.506A50 50 0 0 0 80.966 52.905 30.5 30.5 0 0 0 82.452 49.137 51 51 0 0 1 83.685 58.865H93.787A8.2 8.2 0 0 0 92.199 55.283 19.7 19.7 0 0 0 85.982 49.931 31 31 0 0 0 82.671 48.392 36 36 0 0 0 83.194 46.28 32.6 32.6 0 0 1 87.552 48.392 21.4 21.4 0 0 1 92.806 52.65 27.47 27.47 0 0 0 83.836 39.235 30.5 30.5 0 0 0 83.446 35.131 30.26 30.26 0 0 1 96.69 55.843C99.189 72.344 87.838 87.788 71.301 90.283 54.78 92.786 39.357 81.434 36.857 64.895A30.3 30.3 0 0 0 45.269 68.901 32 32 0 0 0 47.566 70.808 29 29 0 0 0 51.298 72.515C51.266 72.396 51.232 72.28 51.197 72.125A49 49 0 0 1 50.741 69.963C51.488 70.032 52.231 70.1 52.976 70.116M78.567 75.926A51 51 0 0 1 68.296 77.296V87.382A8.2 8.2 0 0 0 71.86 85.807 19.5 19.5 0 0 0 77.196 79.576C77.873 78.378 78.43 77.127 78.937 75.844 78.82 75.859 78.702 75.894 78.567 75.926M59.141 86.436A21 21 0 0 1 54.784 81.094 33.3 33.3 0 0 1 52.047 75.049C49.969 74.358 47.96 73.429 46.05 72.332A21.3 21.3 0 0 1 40.713 67.955 27.12 27.12 0 0 0 59.141 86.436M65.256 77.296A53 53 0 0 1 55.002 75.926C54.867 75.877 54.749 75.86 54.614 75.825A31 31 0 0 0 56.336 79.575 19.5 19.5 0 0 0 61.675 85.806C62.739 86.604 63.955 87.159 65.256 87.381zM92.808 68.071A21 21 0 0 1 87.554 72.343C85.612 73.477 83.584 74.374 81.455 75.099A33 33 0 0 1 78.736 81.093 21.1 21.1 0 0 1 74.379 86.435C83.246 83.867 90.189 76.94 92.808 68.071M85.982 70.809A19.9 19.9 0 0 0 92.199 65.472 8.3 8.3 0 0 0 93.787 61.871H83.686A50 50 0 0 1 82.317 72.144C82.284 72.28 82.251 72.396 82.215 72.546A34 34 0 0 0 85.982 70.809" fill="#c1c1c1" data-fill-palette-color="accent"></path><path d="M77.773 40.049C77.773 53.31 67.029 64.036 53.785 64.036S29.782 53.309 29.782 40.049C29.782 26.805 40.542 16.06 53.785 16.06S77.773 26.805 77.773 40.049M75.256 58.122C85.24 46.264 83.701 28.563 71.844 18.579 59.986 8.598 42.283 10.133 32.316 21.972 23.515 32.43 23.515 47.668 32.316 58.122L28.431 62.01 27.417 60.995 2.687 85.723 8.109 91.147 32.84 66.419 31.825 65.403 35.711 61.517C47.569 71.5 65.272 69.964 75.256 58.122" fill="#c1c1c1" data-fill-palette-color="accent"></path></svg></g></svg></g><g></g></svg></g></svg></g><path d="M0 41.215L0 1 182.78 1 182.78 41.215 180.232 41.215 180.232 3.547 2.547 3.547 2.547 41.215 0 41.215M0 205.985L0 246.2 182.78 246.2 182.78 205.985 180.232 205.985 180.232 243.653 2.547 243.653 2.547 205.985 0 205.985" fill="#fe0039" stroke="transparent" data-fill-palette-color="tertiary"></path></svg></g><defs></defs></svg><rect width="182.7796296587358" height="247.2" fill="none" stroke="none" visibility="hidden"></rect></g></svg></g></svg>